Coordinates
version=1
nRows=19
nColumns=36
inDegrees=yes

Units are S.I. units (second, meters, Newtons, ...)
If the header above contains a line with 'inDegrees', this indicates whether rotational values are in degrees (yes) or radians (no).

endheader
time	pelvis_tilt	pelvis_list	pelvis_rotation	pelvis_tx	pelvis_ty	pelvis_tz	hip_flexion_r	hip_adduction_r	hip_rotation_r	knee_angle_r	knee_angle_r_beta	ankle_angle_r	subtalar_angle_r	mtp_angle_r	hip_flexion_l	hip_adduction_l	hip_rotation_l	knee_angle_l	knee_angle_l_beta	ankle_angle_l	subtalar_angle_l	mtp_angle_l	lumbar_extension	lumbar_bending	lumbar_rotation	arm_flex_r	arm_add_r	arm_rot_r	elbow_flex_r	pro_sup_r	arm_flex_l	arm_add_l	arm_rot_l	elbow_flex_l	pro_sup_l
      4.36666670	     -4.00893216	     -1.08723871	      8.46247985	      0.89666196	      0.90414888	      0.02320226	     24.10391774	     -2.87266657	     10.44447012	     23.56283967	      0.41124913	      6.35481432	    -21.84167985	     -7.49999987	     25.35520464	     -6.40398915	    -12.94744469	     29.55830780	      0.51588979	     10.30541849	    -11.64664229	     -7.49999987	    -23.72852447	     -3.45727951	     -0.74985266	     19.39504201	     -8.10535793	     20.43059789	     81.73286769	     94.71187236	     16.33010651	    -12.96227411	     13.29165219	     90.35457108	     86.69962377
      4.38333330	     -3.11237763	     -1.05484213	      8.38418883	      0.90065492	      0.91685795	      0.01891196	     20.27229467	     -3.11927236	     10.49200960	     18.89637636	      0.32980398	      6.07940159	    -20.85026591	     -7.49999987	     21.65995010	     -5.62661829	    -12.86855857	     24.87672329	      0.43418073	      9.35299797	    -12.62698642	     -7.49999987	    -21.94325103	     -3.06518248	     -0.91152885	     16.13642995	     -7.78854230	     20.95039524	     75.49253756	     91.71430609	     13.14378611	    -12.09386627	     12.64642234	     83.07676554	     80.98919957
      4.40000000	     -2.03103023	     -1.00409365	      8.15513639	      0.90394895	      0.92426780	      0.02221557	     16.78313387	     -3.09385881	     10.83345453	     15.18250928	      0.26498478	      6.04233648	    -19.64599407	     -7.49999987	     18.28032270	     -5.24232792	    -13.02690340	     21.12339076	      0.36867272	      8.98961709	    -12.69442450	     -7.49999987	    -20.79065030	     -2.79090538	     -0.72776998	     13.24853360	     -7.51093923	     20.94850049	     70.36278830	     91.62801995	     10.74292233	    -11.34641572	     11.26988996	     76.27714489	     80.68675437
      4.41666670	     -1.13094265	     -0.85420026	      7.87163341	      0.91225398	      0.93536029	      0.01610904	     13.50654916	     -3.36461968	     10.99206288	     11.73499618	      0.20481432	      5.96974604	    -18.03418068	     -7.49999987	     15.17609239	     -4.63660273	    -13.09609452	     17.70914039	      0.30908281	      8.82066304	    -12.69516145	     -7.49999987	    -19.44528260	     -2.45308436	     -0.52657138	     11.25042144	     -7.39128726	     21.37053820	     63.93273259	     91.21514660	      8.97889886	    -10.40542578	     10.19975056	     68.05892465	     80.52498369
      4.43333330	     -0.17438236	     -0.62960172	      7.42754943	      0.91164594	      0.93691055	      0.01739076	     10.58754644	     -3.63124604	     11.49541362	      8.65742789	      0.15110062	      6.00496560	    -16.38586199	     -7.49999987	     12.23497635	     -4.09045555	    -13.59178475	     14.66138408	      0.25588943	      9.10031733	    -12.64673085	     -7.49999987	    -18.71882009	     -2.36679676	     -0.32117548	      9.31522110	     -7.70660330	     21.56845206	     59.22567454	     91.01843512	      7.51154333	     -9.83485601	      9.32877111	     61.67900746	     80.39479693
      4.45000000	      0.52530777	     -0.51847710	      6.79879517	      0.91923661	      0.93789452	      0.01829066	      8.34241196	     -3.84845907	     11.65199820	      6.36411165	      0.11107470	      6.26483701	    -14.50202997	     -7.49999987	      9.64726109	     -3.64920943	    -14.13433762	     11.83866508	      0.20662368	      9.79577084	    -12.21924132	     -7.49999987	    -17.37550076	     -2.22319538	      0.13531776	      7.81077657	     -8.15335252	     21.95355644	     54.60291406	     90.53719097	      5.82091876	     -9.61997790	      9.16461705	     53.36224279	     80.55316173
      4.46666670	      1.41225432	     -0.24805110	      6.15181126	      0.91963341	      0.93962695	      0.01285488	      6.33782011	     -4.29362264	     12.07541627	      4.75654858	      0.08301743	      6.29039346	    -13.31085536	     -7.49999987	      7.05081135	     -2.90612087	    -14.47497160	      9.30894125	      0.16247167	     10.30026741	    -12.19101042	     -7.49999987	    -16.88604356	     -2.18357735	      0.39234797	      6.00736594	     -9.03996989	     21.48991786	     51.45006577	     90.13014037	      4.14060895	     -9.22992280	      8.68510232	     48.09152445	     80.69836004
      4.48333330	      2.48008395	      0.01288029	      6.05259014	      0.93259553	      0.94130400	      0.00421260	      3.96910988	     -4.89274664	     12.08596874	      3.23864157	      0.05652496	      6.27751090	    -12.13108618	     -7.49999987	      4.40224610	     -2.15965071	    -14.50649047	      7.27277514	      0.12693387	     10.61199967	    -11.97219193	     -7.49999987	    -16.16939597	     -1.89164745	      0.73343867	      3.92948526	     -9.98791037	     20.41902800	     48.48757402	     89.46434238	      2.25639868	     -8.58265381	      8.36784407	     43.29344984	     81.05074359
      4.50000000	      3.37485708	      0.24148587	      5.87032548	      0.93730394	      0.92803267	      0.00260688	      2.14599258	     -5.44365271	     12.13215880	      2.48939381	      0.04344812	      6.78949282	    -11.39893637	     -7.49999987	      2.17637116	     -1.50141308	    -14.45887797	      5.89745413	      0.10292999	     11.45060136	    -11.64295906	     -7.49999987	    -15.42319402	     -1.62170253	      1.44408106	      1.33114416	    -10.89044253	     18.29770438	     47.39657175	     86.76841486	      0.76559333	     -8.56028046	      8.57182052	     39.73728110	     82.37230121
      4.51666670	      4.18829834	      0.43857591	      5.87831069	      0.93142485	      0.92381772	     -0.00035203	      0.76705707	     -6.00898519	     12.09126245	      2.04785629	      0.03574183	      7.02632058	    -11.22324335	     -7.49999987	      0.38111596	     -0.86170119	    -14.19801467	      4.67657394	      0.08162161	     11.79805864	    -11.63317537	     -7.49999987	    -14.89670278	     -1.30301064	      1.45185045	     -0.19944841	    -11.96567249	     17.44774840	     46.07507807	     84.71117574	     -0.69810237	     -8.52072664	      7.97806247	     37.85625741	     81.00235066
      4.53333330	      4.72505057	      0.64009165	      6.00881993	      0.93117885	      0.92407751	     -0.00019800	     -0.21261707	     -6.45716338	     12.21386707	      1.80344870	      0.03147612	      7.24909995	    -11.27202524	     -7.49999987	     -0.80264910	     -0.39182247	    -13.98049211	      3.94845178	      0.06891348	     11.95599271	    -11.50793188	     -7.49999987	    -14.30382331	     -1.11843940	      1.29903699	     -1.41129230	    -12.86936851	     16.98690137	     45.52303061	     84.63362473	     -1.97326931	     -8.90265602	      7.83934038	     37.36014594	     81.05034152
      4.55000000	      5.35769674	      0.79917765	      5.94375055	      0.92517520	      0.91960931	     -0.00254431	     -0.95558524	     -6.87559884	     12.33835397	      1.76726914	      0.03084467	      7.49424806	    -11.39054072	     -7.49999987	     -1.70885392	     -0.04174219	    -13.87151675	      3.54211537	      0.06182158	     11.80345361	    -11.79566195	     -7.49999987	    -14.37848635	     -0.96136108	      1.60001252	     -2.96476603	    -13.68166050	     15.15081043	     46.06784037	     83.12036204	     -2.90302274	     -8.73281060	      7.10069885	     36.80308849	     80.42297509
      4.56666670	      5.54233913	      0.92987399	      6.04417362	      0.91620560	      0.91347898	     -0.00237683	     -0.95298062	     -7.21010365	     12.24188426	      1.83668353	      0.03205617	      7.92868928	    -11.18620583	     -7.49999987	     -1.74670766	      0.24601846	    -13.40755566	      3.42787120	      0.05982764	     11.69463652	    -12.28272370	     -7.49999987	    -14.20737823	     -0.92621539	      1.21014566	     -3.55994465	    -14.55134484	     14.71561422	     45.99521647	     82.79202544	     -3.77307177	     -8.89708228	      7.07735862	     36.20631317	     80.19058441
      4.58333330	      5.69797189	      1.06542795	      5.98273156	      0.92016576	      0.91264179	     -0.00413123	     -0.84064112	     -7.49188914	     12.74729891	      2.07969602	      0.03629754	      7.92381098	    -11.97835593	     -7.49999987	     -1.65191197	      0.42403883	    -13.42196195	      3.61445063	      0.06308406	     11.59304839	    -12.45667180	     -7.49999987	    -14.04476470	     -0.91015730	      0.77971454	     -4.53615892	    -14.91104383	     13.39585899	     46.60034674	     82.64081492	     -4.44368046	     -8.95519846	      6.72784079	     34.77605081	     80.10407296
      4.60000000	      5.72191680	      1.15787154	      5.97994164	      0.92101011	      0.91926948	     -0.00505536	     -0.72255559	     -7.69436125	     13.03714163	      2.16123333	      0.03772064	      7.79258997	    -12.53926469	     -7.49999987	     -1.41599581	      0.54306728	    -13.22992802	      3.92236615	      0.06845820	     11.46353410	    -12.72983747	     -7.49999987	    -13.75230043	     -0.91540604	      0.80308811	     -5.92576267	    -14.79859784	     10.58446642	     47.45962226	     82.36955766	     -4.29066433	     -8.85165754	      6.36751999	     32.71430724	     79.79896865
      4.61666670	      5.71700630	      1.23202927	      5.91611103	      0.92050217	      0.91537579	     -0.00444000	     -0.47704836	     -7.81036942	     13.29664086	      2.32584338	      0.04059362	      7.97178266	    -12.80780979	     -7.49999987	     -1.16785128	      0.62868794	    -13.22679583	      4.26979420	      0.07452197	     11.70551699	    -12.75633162	     -7.49999987	    -13.67370765	     -0.96995414	      1.45644332	     -7.78028932	    -14.47148517	      7.02955201	     48.96282337	     82.35660802	     -3.24307573	     -9.49923695	     10.03160487	     30.95942727	     77.46001350
      4.63333330	      5.82290616	      1.30291735	      5.84356792	      0.91693193	      0.91537637	     -0.00789027	     -0.37612651	     -7.98236502	     13.36475148	      2.42955592	      0.04240375	      7.99182890	    -12.83307119	     -7.49999987	     -1.11927474	      0.74456519	    -13.23582457	      4.41935487	      0.07713229	     11.69695902	    -12.79532753	     -7.49999987	    -13.69991748	     -0.99419545	      1.20010083	     -7.95581905	    -14.75964807	      6.90020334	     48.89462093	     82.35403709	     -3.31794252	     -9.56108621	     10.02792494	     30.85310121	     77.44940279
      4.65000000	      5.39057706	      1.37049049	      5.84163619	      0.91637426	      0.91837112	     -0.00737991	      0.44697923	     -8.12436751	     13.63884125	      2.76658143	      0.04828595	      7.96605878	    -13.44894596	     -7.49999987	     -0.26516541	      0.83635790	    -13.12133946	      4.97343746	      0.08680286	     11.67208120	    -13.29582802	     -7.49999987	    -13.06123740	     -0.98173959	      1.10053177	     -8.68750949	    -14.36615788	      4.48051012	     49.53211743	     83.81527286	     -2.72834841	     -9.67771813	     11.33528365	     29.94836743	     74.82006304
      4.66666670	      5.48761530	      1.41409696	      5.71309517	      0.91738035	      0.92190349	     -0.00858947	      0.51557963	     -8.23416078	     13.75668302	      2.83262314	      0.04943860	      7.94343862	    -13.39576307	     -7.49999987	     -0.27356907	      0.89233742	    -13.23121733	      5.10921940	      0.08917270	     11.58895307	    -13.33616164	     -7.49999987	    -12.89544274	     -0.88805124	      0.80235771	     -8.78826013	    -14.53892911	      4.37706642	     49.48437673	     83.80322836	     -2.47674513	     -9.70523130	     11.30129739	     30.05001499	     74.81168351
